<mxfile host="65bd71144e">
    <diagram id="txh1hALP3aTj-I2zzNxv" name="第 1 页">
        <mxGraphModel dx="459" dy="466" grid="1" gridSize="10" guides="1" tooltips="1" connect="1" arrows="1" fold="1" page="1" pageScale="1" pageWidth="827" pageHeight="1169" math="0" shadow="0">
            <root>
                <mxCell id="0"/>
                <mxCell id="1" parent="0"/>
                <mxCell id="3" style="edgeStyle=none;html=1;" edge="1" parent="1">
                    <mxGeometry relative="1" as="geometry">
                        <mxPoint x="190" y="145" as="targetPoint"/>
                        <mxPoint x="140" y="145" as="sourcePoint"/>
                    </mxGeometry>
                </mxCell>
                <mxCell id="2" value="forecasts&lt;br&gt;" style="text;html=1;align=center;verticalAlign=middle;resizable=0;points=[];autosize=1;strokeColor=default;fillColor=none;labelBorderColor=none;spacing=3;" vertex="1" parent="1">
                    <mxGeometry x="60" y="130" width="70" height="30" as="geometry"/>
                </mxCell>
                <mxCell id="5" value="1" style="text;html=1;align=center;verticalAlign=middle;resizable=0;points=[];autosize=1;strokeColor=default;fillColor=none;labelBorderColor=none;spacing=3;" vertex="1" parent="1">
                    <mxGeometry x="210" y="130" width="30" height="30" as="geometry"/>
                </mxCell>
                <mxCell id="8" style="edgeStyle=none;html=1;" edge="1" parent="1">
                    <mxGeometry relative="1" as="geometry">
                        <mxPoint x="190" y="185" as="targetPoint"/>
                        <mxPoint x="140" y="185" as="sourcePoint"/>
                    </mxGeometry>
                </mxCell>
                <mxCell id="9" value="home" style="text;html=1;align=center;verticalAlign=middle;resizable=0;points=[];autosize=1;strokeColor=default;fillColor=none;labelBorderColor=none;spacing=3;" vertex="1" parent="1">
                    <mxGeometry x="65" y="170" width="60" height="30" as="geometry"/>
                </mxCell>
                <mxCell id="10" value="1" style="text;html=1;align=center;verticalAlign=middle;resizable=0;points=[];autosize=1;strokeColor=default;fillColor=none;labelBorderColor=none;spacing=3;" vertex="1" parent="1">
                    <mxGeometry x="210" y="170" width="30" height="30" as="geometry"/>
                </mxCell>
                <mxCell id="11" value="2" style="text;html=1;align=center;verticalAlign=middle;resizable=0;points=[];autosize=1;strokeColor=default;fillColor=none;labelBorderColor=none;spacing=3;" vertex="1" parent="1">
                    <mxGeometry x="240" y="170" width="30" height="30" as="geometry"/>
                </mxCell>
                <mxCell id="12" value="3" style="text;html=1;align=center;verticalAlign=middle;resizable=0;points=[];autosize=1;strokeColor=default;fillColor=none;labelBorderColor=none;spacing=3;" vertex="1" parent="1">
                    <mxGeometry x="270" y="170" width="30" height="30" as="geometry"/>
                </mxCell>
                <mxCell id="13" style="edgeStyle=none;html=1;" edge="1" parent="1">
                    <mxGeometry relative="1" as="geometry">
                        <mxPoint x="190" y="225" as="targetPoint"/>
                        <mxPoint x="140" y="225" as="sourcePoint"/>
                    </mxGeometry>
                </mxCell>
                <mxCell id="14" value="in&lt;br&gt;" style="text;html=1;align=center;verticalAlign=middle;resizable=0;points=[];autosize=1;strokeColor=default;fillColor=none;labelBorderColor=none;spacing=3;" vertex="1" parent="1">
                    <mxGeometry x="80" y="210" width="30" height="30" as="geometry"/>
                </mxCell>
                <mxCell id="15" value="2" style="text;html=1;align=center;verticalAlign=middle;resizable=0;points=[];autosize=1;strokeColor=default;fillColor=none;labelBorderColor=none;spacing=3;" vertex="1" parent="1">
                    <mxGeometry x="210" y="210" width="30" height="30" as="geometry"/>
                </mxCell>
                <mxCell id="16" value="3" style="text;html=1;align=center;verticalAlign=middle;resizable=0;points=[];autosize=1;strokeColor=default;fillColor=none;labelBorderColor=none;spacing=3;" vertex="1" parent="1">
                    <mxGeometry x="240" y="210" width="30" height="30" as="geometry"/>
                </mxCell>
                <mxCell id="18" style="edgeStyle=none;html=1;" edge="1" parent="1">
                    <mxGeometry relative="1" as="geometry">
                        <mxPoint x="190" y="265" as="targetPoint"/>
                        <mxPoint x="140" y="265" as="sourcePoint"/>
                    </mxGeometry>
                </mxCell>
                <mxCell id="19" value="increase" style="text;html=1;align=center;verticalAlign=middle;resizable=0;points=[];autosize=1;strokeColor=default;fillColor=none;labelBorderColor=none;spacing=3;" vertex="1" parent="1">
                    <mxGeometry x="60" y="250" width="70" height="30" as="geometry"/>
                </mxCell>
                <mxCell id="20" value="3" style="text;html=1;align=center;verticalAlign=middle;resizable=0;points=[];autosize=1;strokeColor=default;fillColor=none;labelBorderColor=none;spacing=3;" vertex="1" parent="1">
                    <mxGeometry x="210" y="250" width="30" height="30" as="geometry"/>
                </mxCell>
                <mxCell id="23" style="edgeStyle=none;html=1;" edge="1" parent="1">
                    <mxGeometry relative="1" as="geometry">
                        <mxPoint x="190" y="305" as="targetPoint"/>
                        <mxPoint x="140" y="305" as="sourcePoint"/>
                    </mxGeometry>
                </mxCell>
                <mxCell id="24" value="july&lt;br&gt;" style="text;html=1;align=center;verticalAlign=middle;resizable=0;points=[];autosize=1;strokeColor=default;fillColor=none;labelBorderColor=none;spacing=3;" vertex="1" parent="1">
                    <mxGeometry x="75" y="290" width="40" height="30" as="geometry"/>
                </mxCell>
                <mxCell id="25" value="4" style="text;html=1;align=center;verticalAlign=middle;resizable=0;points=[];autosize=1;strokeColor=default;fillColor=none;labelBorderColor=none;spacing=3;" vertex="1" parent="1">
                    <mxGeometry x="210" y="290" width="30" height="30" as="geometry"/>
                </mxCell>
                <mxCell id="28" style="edgeStyle=none;html=1;" edge="1" parent="1">
                    <mxGeometry relative="1" as="geometry">
                        <mxPoint x="190" y="345" as="targetPoint"/>
                        <mxPoint x="140" y="345" as="sourcePoint"/>
                    </mxGeometry>
                </mxCell>
                <mxCell id="29" value="june" style="text;html=1;align=center;verticalAlign=middle;resizable=0;points=[];autosize=1;strokeColor=default;fillColor=none;labelBorderColor=none;spacing=3;" vertex="1" parent="1">
                    <mxGeometry x="70" y="330" width="50" height="30" as="geometry"/>
                </mxCell>
                <mxCell id="30" value="2" style="text;html=1;align=center;verticalAlign=middle;resizable=0;points=[];autosize=1;strokeColor=default;fillColor=none;labelBorderColor=none;spacing=3;" vertex="1" parent="1">
                    <mxGeometry x="210" y="330" width="30" height="30" as="geometry"/>
                </mxCell>
                <mxCell id="31" value="3" style="text;html=1;align=center;verticalAlign=middle;resizable=0;points=[];autosize=1;strokeColor=default;fillColor=none;labelBorderColor=none;spacing=3;" vertex="1" parent="1">
                    <mxGeometry x="240" y="330" width="30" height="30" as="geometry"/>
                </mxCell>
                <mxCell id="33" style="edgeStyle=none;html=1;" edge="1" parent="1">
                    <mxGeometry relative="1" as="geometry">
                        <mxPoint x="190" y="385" as="targetPoint"/>
                        <mxPoint x="140" y="385" as="sourcePoint"/>
                    </mxGeometry>
                </mxCell>
                <mxCell id="34" value="new" style="text;html=1;align=center;verticalAlign=middle;resizable=0;points=[];autosize=1;strokeColor=default;fillColor=none;labelBorderColor=none;spacing=3;" vertex="1" parent="1">
                    <mxGeometry x="70" y="370" width="50" height="30" as="geometry"/>
                </mxCell>
                <mxCell id="35" value="1" style="text;html=1;align=center;verticalAlign=middle;resizable=0;points=[];autosize=1;strokeColor=default;fillColor=none;labelBorderColor=none;spacing=3;" vertex="1" parent="1">
                    <mxGeometry x="210" y="370" width="30" height="30" as="geometry"/>
                </mxCell>
                <mxCell id="36" value="4" style="text;html=1;align=center;verticalAlign=middle;resizable=0;points=[];autosize=1;strokeColor=default;fillColor=none;labelBorderColor=none;spacing=3;" vertex="1" parent="1">
                    <mxGeometry x="240" y="370" width="30" height="30" as="geometry"/>
                </mxCell>
                <mxCell id="38" style="edgeStyle=none;html=1;" edge="1" parent="1">
                    <mxGeometry relative="1" as="geometry">
                        <mxPoint x="190" y="430" as="targetPoint"/>
                        <mxPoint x="140" y="430" as="sourcePoint"/>
                    </mxGeometry>
                </mxCell>
                <mxCell id="39" value="prices" style="text;html=1;align=center;verticalAlign=middle;resizable=0;points=[];autosize=1;strokeColor=default;fillColor=none;labelBorderColor=none;spacing=3;" vertex="1" parent="1">
                    <mxGeometry x="65" y="415" width="60" height="30" as="geometry"/>
                </mxCell>
                <mxCell id="40" value="2" style="text;html=1;align=center;verticalAlign=middle;resizable=0;points=[];autosize=1;strokeColor=default;fillColor=none;labelBorderColor=none;spacing=3;" vertex="1" parent="1">
                    <mxGeometry x="210" y="415" width="30" height="30" as="geometry"/>
                </mxCell>
                <mxCell id="43" style="edgeStyle=none;html=1;" edge="1" parent="1">
                    <mxGeometry relative="1" as="geometry">
                        <mxPoint x="190" y="470.0000000000001" as="targetPoint"/>
                        <mxPoint x="140" y="470.0000000000001" as="sourcePoint"/>
                    </mxGeometry>
                </mxCell>
                <mxCell id="44" value="rise" style="text;html=1;align=center;verticalAlign=middle;resizable=0;points=[];autosize=1;strokeColor=default;fillColor=none;labelBorderColor=none;spacing=3;" vertex="1" parent="1">
                    <mxGeometry x="75" y="455" width="40" height="30" as="geometry"/>
                </mxCell>
                <mxCell id="45" value="2" style="text;html=1;align=center;verticalAlign=middle;resizable=0;points=[];autosize=1;strokeColor=default;fillColor=none;labelBorderColor=none;spacing=3;" vertex="1" parent="1">
                    <mxGeometry x="210" y="455" width="30" height="30" as="geometry"/>
                </mxCell>
                <mxCell id="46" value="4" style="text;html=1;align=center;verticalAlign=middle;resizable=0;points=[];autosize=1;strokeColor=default;fillColor=none;labelBorderColor=none;spacing=3;" vertex="1" parent="1">
                    <mxGeometry x="240" y="455" width="30" height="30" as="geometry"/>
                </mxCell>
                <mxCell id="48" style="edgeStyle=none;html=1;" edge="1" parent="1">
                    <mxGeometry relative="1" as="geometry">
                        <mxPoint x="190" y="510.0000000000001" as="targetPoint"/>
                        <mxPoint x="140" y="510.0000000000001" as="sourcePoint"/>
                    </mxGeometry>
                </mxCell>
                <mxCell id="49" value="sales" style="text;html=1;align=center;verticalAlign=middle;resizable=0;points=[];autosize=1;strokeColor=default;fillColor=none;labelBorderColor=none;spacing=3;" vertex="1" parent="1">
                    <mxGeometry x="70" y="495" width="50" height="30" as="geometry"/>
                </mxCell>
                <mxCell id="50" value="1" style="text;html=1;align=center;verticalAlign=middle;resizable=0;points=[];autosize=1;strokeColor=default;fillColor=none;labelBorderColor=none;spacing=3;" vertex="1" parent="1">
                    <mxGeometry x="210" y="495" width="30" height="30" as="geometry"/>
                </mxCell>
                <mxCell id="51" value="3" style="text;html=1;align=center;verticalAlign=middle;resizable=0;points=[];autosize=1;strokeColor=default;fillColor=none;labelBorderColor=none;spacing=3;" vertex="1" parent="1">
                    <mxGeometry x="240" y="495" width="30" height="30" as="geometry"/>
                </mxCell>
                <mxCell id="52" value="4" style="text;html=1;align=center;verticalAlign=middle;resizable=0;points=[];autosize=1;strokeColor=default;fillColor=none;labelBorderColor=none;spacing=3;" vertex="1" parent="1">
                    <mxGeometry x="270" y="495" width="30" height="30" as="geometry"/>
                </mxCell>
                <mxCell id="53" style="edgeStyle=none;html=1;" edge="1" parent="1">
                    <mxGeometry relative="1" as="geometry">
                        <mxPoint x="190" y="550.0000000000001" as="targetPoint"/>
                        <mxPoint x="140" y="550.0000000000001" as="sourcePoint"/>
                    </mxGeometry>
                </mxCell>
                <mxCell id="54" value="top&lt;br&gt;" style="text;html=1;align=center;verticalAlign=middle;resizable=0;points=[];autosize=1;strokeColor=default;fillColor=none;labelBorderColor=none;spacing=3;" vertex="1" parent="1">
                    <mxGeometry x="75" y="535" width="40" height="30" as="geometry"/>
                </mxCell>
                <mxCell id="55" value="1" style="text;html=1;align=center;verticalAlign=middle;resizable=0;points=[];autosize=1;strokeColor=default;fillColor=none;labelBorderColor=none;spacing=3;" vertex="1" parent="1">
                    <mxGeometry x="210" y="535" width="30" height="30" as="geometry"/>
                </mxCell>
                <mxCell id="58" value="4" style="text;html=1;align=center;verticalAlign=middle;resizable=0;points=[];autosize=1;strokeColor=default;fillColor=none;labelBorderColor=none;spacing=3;" vertex="1" parent="1">
                    <mxGeometry x="300" y="170" width="30" height="30" as="geometry"/>
                </mxCell>
            </root>
        </mxGraphModel>
    </diagram>
</mxfile>